<svg xmlns="http://www.w3.org/2000/svg" viewBox="0 0 349.07 103.96"><defs><style>.d{fill:#104880;}.e{fill:#4eaeac;}</style></defs><g id="a"></g><g id="b"><g id="c"><g><path class="e" d="M335.11,101.93c7.71,0,13.96-6.25,13.96-13.96s-6.25-13.96-13.96-13.96-13.97,6.25-13.97,13.96,6.25,13.96,13.97,13.96m8.44-7.78c0,1.15-.93,2.08-2.08,2.08s-2.09-.93-2.09-2.08,.93-2.08,2.09-2.08,2.08,.93,2.08,2.08m-14.16-12.41c1.07,0,1.64,.6,1.92,1.41l2.99,8.1,4.18-10.96c.26-.68,.81-1.35,1.85-1.35s1.9,.81,1.9,1.87c0,.34-.13,.75-.21,.94l-5.4,12.68c-.44,1.02-1.17,1.72-2.24,1.72h-.21c-1.07,0-1.8-.68-2.24-1.72l-4.27-9.87c-.1-.26-.21-.6-.21-.96,0-.94,.86-1.85,1.92-1.85"></path><path class="d" d="M69.17,76.5v-.32c0-15.55-13.8-21.26-25.7-25.22-9.2-3.17-17.29-5.39-17.29-10.15v-.32c0-3.33,3.02-5.87,8.89-5.87,5.07,0,11.58,2.06,18.4,5.4,1.59,.79,2.7,1.11,4.44,1.11,5.4,0,9.68-4.13,9.68-9.52,0-4.13-2.22-7.3-5.71-9.04-8.25-4.12-17.45-6.5-26.33-6.5-17.14,0-31.1,9.68-31.1,26.97v.32c0,16.5,13.49,22.05,25.38,25.54,9.36,2.86,17.61,4.6,17.61,9.84v.32c0,3.81-3.17,6.35-10.15,6.35s-14.91-2.54-23-7.61c-1.27-.79-3.02-1.27-4.76-1.27-5.39,0-9.52,4.13-9.52,9.52,0,3.81,2.06,6.66,4.6,8.25,10.31,6.66,21.58,9.68,32.05,9.68,18.4,0,32.52-8.57,32.52-27.45"></path><path class="d" d="M243.38,11.28c0-6.42-5.17-11.28-11.43-11.28s-9.55,4.07-11.11,8.15l-25.16,65.96-18-48.73c-1.72-4.86-5.16-8.46-11.58-8.46s-11.58,5.48-11.58,11.12c0,2.19,.63,4.23,1.25,5.8l25.67,59.39c2.66,6.27,7.04,10.34,13.46,10.34h1.25c6.42,0,10.8-4.23,13.46-10.34L242.12,16.92c.47-1.1,1.25-3.61,1.25-5.64"></path><path class="d" d="M319.71,56.72c0-17.39-12.38-40.43-40.43-40.43-24.44,0-41.52,19.75-41.52,43.72v.31c0,25.7,18.65,43.41,43.88,43.41,12.22,0,21.78-3.92,29.14-10.19,1.73-1.57,3.14-3.92,3.14-7.05,0-5.33-3.92-9.4-9.25-9.4-2.51,0-4.07,.63-5.8,1.88-4.86,3.6-10.34,5.64-16.92,5.64-10.66,0-18.18-5.64-20.53-16.45h47.16c6.27,0,11.13-4.54,11.13-11.44m-58.6-3.45c1.88-10.81,8.31-17.86,18.18-17.86s16.3,7.21,17.71,17.86h-35.89Z"></path><path class="d" d="M74.42,78.23v-.32c0-18.35,13.96-26.83,33.89-26.83,8.47,0,14.59,1.41,20.55,3.45v-1.41c0-9.88-6.12-15.37-18.04-15.37-6.59,0-11.92,.94-16.47,2.35-1.41,.47-2.35,.63-3.45,.63-5.49,0-9.88-4.23-9.88-9.73,0-4.24,2.66-7.85,6.43-9.26,7.53-2.82,15.69-4.39,26.83-4.39,13.02,0,22.44,3.45,28.4,9.41,6.28,6.28,9.1,15.53,9.1,26.83v38.28c0,6.43-5.18,11.45-11.61,11.45-6.9,0-11.45-4.86-11.45-9.88v-.16c-5.81,6.43-13.81,10.67-25.42,10.67-15.84,0-28.87-9.1-28.87-25.73m54.75-5.49v-4.24c-4.08-1.88-9.41-3.14-15.22-3.14-10.2,0-16.47,4.08-16.47,11.61v.32c0,6.43,5.34,10.2,13.02,10.2,11.14,0,18.67-6.12,18.67-14.75"></path></g></g></g></svg>