<svg xmlns="http://www.w3.org/2000/svg" viewBox="0 0 349.07 194.39"><defs><style>.d{fill:#104880;}.e{fill:#4eaeac;}</style></defs><g id="a"></g><g id="b"><g id="c"><g><path class="e" d="M335.11,101.93c7.71,0,13.96-6.25,13.96-13.96s-6.25-13.96-13.96-13.96-13.97,6.25-13.97,13.96,6.25,13.96,13.97,13.96m8.44-7.78c0,1.15-.93,2.08-2.08,2.08s-2.09-.93-2.09-2.08,.93-2.08,2.09-2.08,2.08,.93,2.08,2.08m-14.16-12.41c1.07,0,1.64,.6,1.92,1.41l2.99,8.1,4.18-10.96c.26-.68,.81-1.35,1.85-1.35s1.9,.81,1.9,1.87c0,.34-.13,.75-.21,.94l-5.4,12.68c-.44,1.02-1.17,1.72-2.24,1.72h-.21c-1.07,0-1.8-.68-2.24-1.72l-4.27-9.87c-.1-.26-.21-.6-.21-.96,0-.94,.86-1.85,1.92-1.85"></path><path class="d" d="M69.17,76.5v-.32c0-15.55-13.8-21.26-25.7-25.22-9.2-3.17-17.29-5.39-17.29-10.15v-.32c0-3.33,3.02-5.87,8.89-5.87,5.07,0,11.58,2.06,18.4,5.4,1.59,.79,2.7,1.11,4.44,1.11,5.4,0,9.68-4.13,9.68-9.52,0-4.13-2.22-7.3-5.71-9.04-8.25-4.12-17.45-6.5-26.33-6.5-17.14,0-31.1,9.68-31.1,26.97v.32c0,16.5,13.49,22.05,25.38,25.54,9.36,2.86,17.61,4.6,17.61,9.84v.32c0,3.81-3.17,6.35-10.15,6.35s-14.91-2.54-23-7.61c-1.27-.79-3.02-1.27-4.76-1.27-5.39,0-9.52,4.13-9.52,9.52,0,3.81,2.06,6.66,4.6,8.25,10.31,6.66,21.58,9.68,32.05,9.68,18.4,0,32.52-8.57,32.52-27.45"></path><path class="d" d="M243.38,11.28c0-6.42-5.17-11.28-11.43-11.28s-9.55,4.07-11.11,8.15l-25.16,65.96-18-48.73c-1.72-4.86-5.16-8.46-11.58-8.46s-11.58,5.48-11.58,11.12c0,2.19,.63,4.23,1.25,5.8l25.67,59.39c2.66,6.27,7.04,10.34,13.46,10.34h1.25c6.42,0,10.8-4.23,13.46-10.34L242.12,16.92c.47-1.1,1.25-3.61,1.25-5.64"></path><path class="d" d="M319.71,56.72c0-17.39-12.38-40.43-40.43-40.43-24.44,0-41.52,19.75-41.52,43.72v.31c0,25.7,18.65,43.41,43.88,43.41,12.22,0,21.78-3.92,29.14-10.19,1.73-1.57,3.14-3.92,3.14-7.05,0-5.33-3.92-9.4-9.25-9.4-2.51,0-4.07,.63-5.8,1.88-4.86,3.6-10.34,5.64-16.92,5.64-10.66,0-18.18-5.64-20.53-16.45h47.16c6.27,0,11.13-4.54,11.13-11.44m-58.6-3.45c1.88-10.81,8.31-17.86,18.18-17.86s16.3,7.21,17.71,17.86h-35.89Z"></path><path class="d" d="M74.42,78.23v-.32c0-18.35,13.96-26.83,33.89-26.83,8.47,0,14.59,1.41,20.55,3.45v-1.41c0-9.88-6.12-15.37-18.04-15.37-6.59,0-11.92,.94-16.47,2.35-1.41,.47-2.35,.63-3.45,.63-5.49,0-9.88-4.23-9.88-9.73,0-4.24,2.66-7.85,6.43-9.26,7.53-2.82,15.69-4.39,26.83-4.39,13.02,0,22.44,3.45,28.4,9.41,6.28,6.28,9.1,15.53,9.1,26.83v38.28c0,6.43-5.18,11.45-11.61,11.45-6.9,0-11.45-4.86-11.45-9.88v-.16c-5.81,6.43-13.81,10.67-25.42,10.67-15.84,0-28.87-9.1-28.87-25.73m54.75-5.49v-4.24c-4.08-1.88-9.41-3.14-15.22-3.14-10.2,0-16.47,4.08-16.47,11.61v.32c0,6.43,5.34,10.2,13.02,10.2,11.14,0,18.67-6.12,18.67-14.75"></path><path class="d" d="M223.74,148c0-1.03,.8-1.83,1.83-1.83h7.37c2.59,0,4.63,.77,5.95,2.06,1.09,1.12,1.71,2.65,1.71,4.45v.06c0,3.3-1.92,5.31-4.69,6.16l3.95,4.98c.35,.44,.59,.83,.59,1.39,0,1-.85,1.68-1.74,1.68-.83,0-1.36-.38-1.77-.94l-5.01-6.4h-4.57v5.54c0,1-.8,1.8-1.8,1.8s-1.83-.8-1.83-1.8v-17.16Zm8.93,8.4c2.59,0,4.25-1.36,4.25-3.45v-.06c0-2.21-1.59-3.42-4.28-3.42h-5.28v6.93h5.31Z"></path><path class="d" d="M250.9,167.17c-4.51,0-7.99-3.27-7.99-8.08v-.06c0-4.45,3.15-8.11,7.61-8.11,4.95,0,7.4,4.07,7.4,7.67,0,1-.77,1.71-1.68,1.71h-9.76c.38,2.54,2.18,3.95,4.48,3.95,1.5,0,2.68-.53,3.69-1.36,.26-.21,.5-.32,.91-.32,.8,0,1.41,.62,1.41,1.44,0,.44-.21,.83-.47,1.09-1.41,1.27-3.18,2.06-5.6,2.06m3.54-9.23c-.24-2.3-1.59-4.1-3.95-4.1-2.18,0-3.71,1.68-4.04,4.1h7.99Z"></path><path class="d" d="M260.98,152.87c0-1,.77-1.8,1.77-1.8s1.8,.8,1.8,1.8v.97c1.15-1.62,2.77-2.92,5.31-2.92,3.66,0,7.22,2.89,7.22,8.08v.06c0,5.16-3.54,8.08-7.22,8.08-2.6,0-4.22-1.3-5.31-2.74v5.51c0,1-.8,1.77-1.8,1.77s-1.77-.77-1.77-1.77v-17.04Zm12.47,6.19v-.06c0-3.01-2.03-4.98-4.45-4.98s-4.54,2-4.54,4.98v.06c0,2.98,2.12,4.98,4.54,4.98s4.45-1.92,4.45-4.98"></path><path class="d" d="M279.15,162.33v-.06c0-3.36,2.62-5.01,6.43-5.01,1.74,0,2.98,.27,4.19,.65v-.38c0-2.21-1.36-3.39-3.86-3.39-1.36,0-2.48,.24-3.45,.62-.21,.06-.38,.09-.56,.09-.83,0-1.5-.65-1.5-1.47,0-.65,.44-1.21,.97-1.41,1.48-.56,2.98-.91,5.01-.91,2.33,0,4.07,.62,5.16,1.74,1.15,1.12,1.68,2.77,1.68,4.81v7.66c0,.98-.77,1.71-1.74,1.71-1.03,0-1.74-.71-1.74-1.5v-.59c-1.06,1.27-2.68,2.27-5.07,2.27-2.92,0-5.51-1.68-5.51-4.8m10.67-1.12v-1.06c-.91-.35-2.12-.62-3.54-.62-2.3,0-3.66,.97-3.66,2.59v.06c0,1.5,1.33,2.36,3.04,2.36,2.36,0,4.16-1.36,4.16-3.33"></path><path class="d" d="M296.9,152.87c0-1,.77-1.8,1.77-1.8s1.8,.8,1.8,1.8v1.59c.83-1.95,2.36-3.42,3.92-3.42,1.12,0,1.77,.74,1.77,1.77,0,.94-.62,1.56-1.41,1.71-2.54,.44-4.28,2.39-4.28,6.07v4.6c0,.97-.8,1.77-1.8,1.77s-1.77-.77-1.77-1.77v-12.32Z"></path><path class="d" d="M306.72,162.33v-.06c0-3.36,2.62-5.01,6.43-5.01,1.74,0,2.98,.27,4.19,.65v-.38c0-2.21-1.36-3.39-3.86-3.39-1.36,0-2.48,.24-3.45,.62-.21,.06-.38,.09-.56,.09-.83,0-1.5-.65-1.5-1.47,0-.65,.44-1.21,.97-1.41,1.48-.56,2.98-.91,5.01-.91,2.33,0,4.07,.62,5.16,1.74,1.15,1.12,1.68,2.77,1.68,4.81v7.66c0,.98-.77,1.71-1.74,1.71-1.03,0-1.74-.71-1.74-1.5v-.59c-1.06,1.27-2.68,2.27-5.07,2.27-2.92,0-5.51-1.68-5.51-4.8m10.67-1.12v-1.06c-.91-.35-2.12-.62-3.54-.62-2.3,0-3.66,.97-3.66,2.59v.06c0,1.5,1.33,2.36,3.04,2.36,2.36,0,4.16-1.36,4.16-3.33"></path><path class="d" d="M223.74,175.22c0-1.03,.8-1.83,1.83-1.83h7.37c2.59,0,4.63,.77,5.95,2.06,1.09,1.12,1.71,2.65,1.71,4.45v.06c0,3.3-1.92,5.31-4.69,6.16l3.95,4.98c.35,.44,.59,.83,.59,1.38,0,1-.85,1.68-1.74,1.68-.83,0-1.36-.38-1.77-.94l-5.01-6.4h-4.57v5.54c0,1-.8,1.8-1.8,1.8s-1.83-.8-1.83-1.8v-17.16Zm8.93,8.4c2.59,0,4.25-1.36,4.25-3.45v-.06c0-2.21-1.59-3.42-4.28-3.42h-5.28v6.93h5.31Z"></path><path class="d" d="M250.9,194.39c-4.51,0-7.99-3.27-7.99-8.08v-.06c0-4.45,3.15-8.11,7.61-8.11,4.95,0,7.4,4.07,7.4,7.67,0,1-.77,1.71-1.68,1.71h-9.76c.38,2.54,2.18,3.95,4.48,3.95,1.5,0,2.68-.53,3.69-1.36,.26-.21,.5-.32,.91-.32,.8,0,1.41,.62,1.41,1.44,0,.44-.21,.83-.47,1.09-1.41,1.27-3.18,2.06-5.6,2.06m3.54-9.23c-.24-2.3-1.59-4.1-3.95-4.1-2.18,0-3.71,1.68-4.04,4.1h7.99Z"></path><path class="d" d="M260.13,186.34v-.06c0-4.42,3.42-8.14,8.11-8.14,2.45,0,4.13,.79,5.45,1.95,.24,.21,.56,.65,.56,1.24,0,.92-.74,1.62-1.65,1.62-.44,0-.83-.18-1.06-.35-.91-.77-1.92-1.33-3.33-1.33-2.6,0-4.51,2.24-4.51,4.95v.06c0,2.77,1.92,4.98,4.66,4.98,1.42,0,2.51-.56,3.48-1.39,.2-.18,.56-.38,.97-.38,.86,0,1.53,.71,1.53,1.56,0,.47-.18,.86-.5,1.12-1.39,1.33-3.07,2.21-5.66,2.21-4.63,0-8.05-3.63-8.05-8.05"></path><path class="d" d="M277.17,174.28c0-1.06,.88-1.74,2.04-1.74s2.03,.68,2.03,1.74v.18c0,1.06-.89,1.77-2.03,1.77s-2.04-.71-2.04-1.77v-.18Zm.27,5.81c0-1,.77-1.8,1.77-1.8s1.8,.8,1.8,1.8v12.32c0,1-.8,1.77-1.8,1.77s-1.77-.77-1.77-1.77v-12.32Z"></path><path class="d" d="M284.22,186.34v-.06c0-4.42,3.42-8.14,8.11-8.14,2.45,0,4.13,.79,5.45,1.95,.24,.21,.56,.65,.56,1.24,0,.92-.74,1.62-1.65,1.62-.44,0-.83-.18-1.06-.35-.91-.77-1.92-1.33-3.33-1.33-2.6,0-4.51,2.24-4.51,4.95v.06c0,2.77,1.92,4.98,4.66,4.98,1.42,0,2.51-.56,3.48-1.39,.21-.18,.56-.38,.97-.38,.86,0,1.53,.71,1.53,1.56,0,.47-.18,.86-.5,1.12-1.39,1.33-3.07,2.21-5.66,2.21-4.63,0-8.05-3.63-8.05-8.05"></path><path class="d" d="M301.53,174.13c0-.97,.77-1.77,1.77-1.77s1.8,.8,1.8,1.77v18.28c0,1-.8,1.77-1.8,1.77s-1.77-.77-1.77-1.77v-18.28Z"></path><path class="d" d="M308.14,189.55v-.06c0-3.36,2.62-5.01,6.43-5.01,1.74,0,2.98,.27,4.19,.65v-.38c0-2.21-1.36-3.39-3.86-3.39-1.36,0-2.48,.24-3.45,.62-.21,.06-.38,.09-.56,.09-.83,0-1.5-.65-1.5-1.47,0-.65,.44-1.21,.97-1.41,1.48-.56,2.98-.91,5.01-.91,2.33,0,4.07,.62,5.16,1.74,1.15,1.12,1.68,2.77,1.68,4.8v7.66c0,.97-.77,1.71-1.74,1.71-1.03,0-1.74-.71-1.74-1.5v-.59c-1.06,1.27-2.68,2.27-5.07,2.27-2.92,0-5.51-1.68-5.51-4.8m10.67-1.12v-1.06c-.91-.35-2.12-.62-3.54-.62-2.3,0-3.66,.97-3.66,2.59v.06c0,1.5,1.33,2.36,3.04,2.36,2.36,0,4.16-1.36,4.16-3.33"></path><path class="d" d="M223.74,122.18c0-1.03,.8-1.83,1.83-1.83h6.31c4.84,0,7.84,2.74,7.84,6.9v.06c0,4.63-3.72,7.05-8.26,7.05h-4.1v4.98c0,1-.8,1.8-1.8,1.8s-1.83-.8-1.83-1.8v-17.16Zm7.84,8.9c2.74,0,4.45-1.53,4.45-3.69v-.06c0-2.42-1.74-3.69-4.45-3.69h-4.22v7.43h4.22Z"></path><path class="d" d="M242.44,127.04c0-1,.77-1.8,1.77-1.8s1.8,.8,1.8,1.8v1.59c.83-1.95,2.36-3.42,3.92-3.42,1.12,0,1.77,.74,1.77,1.77,0,.94-.62,1.56-1.41,1.71-2.54,.44-4.28,2.39-4.28,6.07v4.6c0,.97-.8,1.77-1.8,1.77s-1.77-.77-1.77-1.77v-12.32Z"></path><path class="d" d="M252.64,133.29v-.06c0-4.45,3.54-8.14,8.31-8.14s8.29,3.63,8.29,8.08v.06c0,4.42-3.54,8.11-8.34,8.11s-8.26-3.63-8.26-8.05m13.03,0v-.06c0-2.74-1.97-5.01-4.78-5.01s-4.69,2.24-4.69,4.95v.06c0,2.71,1.98,4.98,4.75,4.98s4.72-2.24,4.72-4.92"></path><path class="d" d="M273.02,136.69v-8.2h-.59c-.85,0-1.53-.68-1.53-1.53s.68-1.53,1.53-1.53h.59v-2.65c0-.97,.79-1.77,1.8-1.77s1.77,.8,1.77,1.77v2.65h2.8c.85,0,1.56,.68,1.56,1.53s-.71,1.53-1.56,1.53h-2.8v7.64c0,1.39,.71,1.95,1.92,1.95,.41,0,.77-.09,.89-.09,.8,0,1.5,.65,1.5,1.48,0,.65-.44,1.18-.94,1.38-.77,.26-1.5,.41-2.45,.41-2.62,0-4.48-1.15-4.48-4.57"></path><path class="d" d="M290.5,141.34c-4.51,0-7.99-3.27-7.99-8.08v-.06c0-4.45,3.15-8.11,7.61-8.11,4.95,0,7.4,4.07,7.4,7.67,0,1-.77,1.71-1.68,1.71h-9.76c.38,2.54,2.18,3.95,4.48,3.95,1.5,0,2.68-.53,3.69-1.36,.26-.21,.5-.32,.91-.32,.8,0,1.41,.62,1.41,1.44,0,.44-.21,.83-.47,1.09-1.41,1.27-3.18,2.06-5.6,2.06m3.54-9.23c-.24-2.3-1.59-4.1-3.95-4.1-2.18,0-3.71,1.68-4.04,4.1h7.99Z"></path><path class="d" d="M301.5,144.38c-.62-.24-1-.74-1-1.41,0-.8,.68-1.47,1.5-1.47,.27,0,.47,.06,.65,.15,1.41,.8,2.98,1.24,4.78,1.24,3.18,0,4.92-1.65,4.92-4.78v-1.21c-1.3,1.68-2.92,2.86-5.48,2.86-3.65,0-7.08-2.71-7.08-7.28v-.06c0-4.6,3.45-7.31,7.08-7.31,2.62,0,4.25,1.21,5.45,2.65v-.74c0-.97,.8-1.77,1.77-1.77s1.8,.8,1.8,1.8v10.76c0,2.63-.68,4.57-1.98,5.87-1.41,1.42-3.6,2.09-6.4,2.09-2.18,0-4.13-.47-6.02-1.39m10.88-11.94v-.06c0-2.54-2.09-4.28-4.57-4.28s-4.42,1.71-4.42,4.28v.06c0,2.53,1.98,4.28,4.42,4.28s4.57-1.74,4.57-4.28"></path><path class="d" d="M326.92,141.34c-4.51,0-7.99-3.27-7.99-8.08v-.06c0-4.45,3.15-8.11,7.61-8.11,4.95,0,7.4,4.07,7.4,7.67,0,1-.77,1.71-1.68,1.71h-9.76c.38,2.54,2.18,3.95,4.48,3.95,1.5,0,2.68-.53,3.69-1.36,.26-.21,.5-.32,.91-.32,.8,0,1.41,.62,1.41,1.44,0,.44-.2,.83-.47,1.09-1.41,1.27-3.18,2.06-5.6,2.06m3.54-9.23c-.24-2.3-1.59-4.1-3.95-4.1-2.18,0-3.71,1.68-4.04,4.1h7.99Z"></path></g></g></g></svg>